<svg version="1.1" viewBox="0.0 0.0 233.60629921259843 223.71916010498688" fill="none" stroke="none" stroke-linecap="square" stroke-miterlimit="10" xmlns:xlink="http://www.w3.org/1999/xlink" xmlns="http://www.w3.org/2000/svg"><clipPath id="p.0"><path d="m0 0l233.6063 0l0 223.71916l-233.6063 0l0 -223.71916z" clip-rule="nonzero"/></clipPath><g clip-path="url(#p.0)"><path fill="#000000" fill-opacity="0.0" d="m0 0l233.6063 0l0 223.71916l-233.6063 0z" fill-rule="evenodd"/><path fill="#000000" fill-opacity="0.0" d="m58.627296 190.17323l0 -190.17323" fill-rule="evenodd"/><path stroke="#000000" stroke-width="1.0" stroke-linejoin="round" stroke-linecap="butt" d="m58.627296 190.17323l0 -184.17323" fill-rule="evenodd"/><path fill="#000000" stroke="#000000" stroke-width="1.0" stroke-linecap="butt" d="m60.27903 6.0l-1.6517334 -4.538098l-1.6517334 4.538098z" fill-rule="evenodd"/><path fill="#000000" fill-opacity="0.0" d="m58.753586 190.17323l138.4252 0.47244263" fill-rule="evenodd"/><path stroke="#000000" stroke-width="1.0" stroke-linejoin="round" stroke-linecap="butt" d="m58.75359 190.17323l132.42525 0.45195007" fill-rule="evenodd"/><path fill="#000000" stroke="#000000" stroke-width="1.0" stroke-linecap="butt" d="m191.17319 192.27692l4.543701 -1.6362305l-4.532425 -1.6672211z" fill-rule="evenodd"/><path fill="#0000ff" d="m86.92126 36.396324l0 0c0 -3.0266914 2.5664368 -5.4803143 5.7322845 -5.4803143l0 0c1.5202942 0 2.978325 0.57738876 4.053337 1.6051464c1.0750122 1.0277596 1.6789474 2.4216995 1.6789474 3.8751678l0 0c0 3.0266953 -2.5664291 5.480316 -5.7322845 5.480316l0 0c-3.1658478 0 -5.7322845 -2.453621 -5.7322845 -5.480316z" fill-rule="evenodd"/><path stroke="#000000" stroke-width="1.0" stroke-linejoin="round" stroke-linecap="butt" d="m86.92126 36.396324l0 0c0 -3.0266914 2.5664368 -5.4803143 5.7322845 -5.4803143l0 0c1.5202942 0 2.978325 0.57738876 4.053337 1.6051464c1.0750122 1.0277596 1.6789474 2.4216995 1.6789474 3.8751678l0 0c0 3.0266953 -2.5664291 5.480316 -5.7322845 5.480316l0 0c-3.1658478 0 -5.7322845 -2.453621 -5.7322845 -5.480316z" fill-rule="evenodd"/><path fill="#0000ff" d="m151.96326 120.74278l0 0c0 -3.0266953 2.5664215 -5.480316 5.7322845 -5.480316l0 0c1.5202942 0 2.9783173 0.5773926 4.0533295 1.6051483c1.0750122 1.0277557 1.6789551 2.4216995 1.6789551 3.8751678l0 0c0 3.0266953 -2.5664368 5.480316 -5.7322845 5.480316l0 0c-3.165863 0 -5.7322845 -2.453621 -5.7322845 -5.480316z" fill-rule="evenodd"/><path stroke="#000000" stroke-width="1.0" stroke-linejoin="round" stroke-linecap="butt" d="m151.96326 120.74278l0 0c0 -3.0266953 2.5664215 -5.480316 5.7322845 -5.480316l0 0c1.5202942 0 2.9783173 0.5773926 4.0533295 1.6051483c1.0750122 1.0277557 1.6789551 2.4216995 1.6789551 3.8751678l0 0c0 3.0266953 -2.5664368 5.480316 -5.7322845 5.480316l0 0c-3.165863 0 -5.7322845 -2.453621 -5.7322845 -5.480316z" fill-rule="evenodd"/><path fill="#000000" fill-opacity="0.0" d="m96.70688 40.271492l56.944885 76.59843" fill-rule="evenodd"/><path stroke="#000000" stroke-width="1.0" stroke-linejoin="round" stroke-linecap="butt" d="m96.70688 40.271492l56.944885 76.59843" fill-rule="evenodd"/><path fill="#000000" fill-opacity="0.0" d="m144.48294 176.78215l21.196854 0l0 42.015747l-21.196854 0z" fill-rule="evenodd"/><path fill="#000000" d="m154.71732 207.40527l0 -13.375l1.484375 0l0 1.25q0.53125 -0.734375 1.1875 -1.09375q0.671875 -0.375 1.625 -0.375q1.234375 0 2.171875 0.640625q0.953125 0.625 1.4375 1.796875q0.484375 1.15625 0.484375 2.546875q0 1.484375 -0.53125 2.671875q-0.53125 1.1875 -1.546875 1.828125q-1.015625 0.625 -2.140625 0.625q-0.8125 0 -1.46875 -0.34375q-0.65625 -0.34375 -1.0625 -0.875l0 4.703125l-1.640625 0zm1.484375 -8.484375q0 1.859375 0.75 2.765625q0.765625 0.890625 1.828125 0.890625q1.09375 0 1.875 -0.921875q0.78125 -0.9375 0.78125 -2.875q0 -1.84375 -0.765625 -2.765625q-0.75 -0.921875 -1.8125 -0.921875q-1.046875 0 -1.859375 0.984375q-0.796875 0.96875 -0.796875 2.84375z" fill-rule="nonzero"/><path fill="#000000" fill-opacity="0.0" d="m157.69554 126.2231l0 64.34645" fill-rule="evenodd"/><path stroke="#000000" stroke-width="1.0" stroke-linejoin="round" stroke-linecap="butt" stroke-dasharray="1.0,3.0" d="m157.69554 126.2231l0 64.34645" fill-rule="evenodd"/><path fill="#000000" fill-opacity="0.0" d="m33.157787 96.78215l21.19685 0l0 42.015747l-21.19685 0z" fill-rule="evenodd"/><path fill="#000000" d="m43.392162 127.40527l0 -13.375l1.484375 0l0 1.25q0.53125 -0.734375 1.1875 -1.09375q0.671875 -0.375 1.625 -0.375q1.234375 0 2.171875 0.640625q0.953125 0.625 1.4375 1.796875q0.484375 1.15625 0.484375 2.546875q0 1.484375 -0.53125 2.671875q-0.53125 1.1875 -1.546875 1.828125q-1.015625 0.625 -2.140625 0.625q-0.8125 0 -1.46875 -0.34375q-0.65625 -0.34375 -1.0625 -0.875l0 4.703125l-1.640625 0zm1.484375 -8.484375q0 1.859375 0.75 2.765625q0.765625 0.890625 1.828125 0.890625q1.09375 0 1.875 -0.921875q0.78125 -0.9375 0.78125 -2.875q0 -1.84375 -0.765625 -2.765625q-0.75 -0.921875 -1.8125 -0.921875q-1.046875 0 -1.859375 0.984375q-0.796875 0.96875 -0.796875 2.84375z" fill-rule="nonzero"/><path fill="#000000" fill-opacity="0.0" d="m40.255817 116.86877l21.19685 0l0 30.708656l-21.19685 0z" fill-rule="evenodd"/><path fill="#000000" d="m53.958942 134.04752l0 0.78125l-4.421875 0q-0.015625 -0.296875 0.09375 -0.5625q0.171875 -0.453125 0.53125 -0.890625q0.375 -0.4375 1.078125 -1.015625q1.09375 -0.890625 1.46875 -1.40625q0.390625 -0.53125 0.390625 -1.0q0 -0.484375 -0.359375 -0.8125q-0.34375 -0.34375 -0.890625 -0.34375q-0.59375 0 -0.953125 0.359375q-0.359375 0.359375 -0.359375 0.984375l-0.84375 -0.078125q0.09375 -0.953125 0.65625 -1.4375q0.5625 -0.5 1.515625 -0.5q0.953125 0 1.515625 0.53125q0.5625 0.53125 0.5625 1.328125q0 0.390625 -0.171875 0.78125q-0.15625 0.390625 -0.546875 0.828125q-0.375 0.421875 -1.25 1.15625q-0.734375 0.625 -0.953125 0.84375q-0.203125 0.21875 -0.34375 0.453125l3.28125 0z" fill-rule="nonzero"/><path fill="#000000" fill-opacity="0.0" d="m151.96326 120.74278l-93.291336 0" fill-rule="evenodd"/><path stroke="#000000" stroke-width="1.0" stroke-linejoin="round" stroke-linecap="butt" stroke-dasharray="1.0,3.0" d="m151.96326 120.74278l-93.291336 0" fill-rule="evenodd"/><path fill="#000000" fill-opacity="0.0" d="m86.92126 36.396324l-31.81102 0" fill-rule="evenodd"/><path stroke="#000000" stroke-width="1.0" stroke-linejoin="round" stroke-linecap="butt" stroke-dasharray="1.0,3.0" d="m86.92126 36.396324l-31.81102 0" fill-rule="evenodd"/><path fill="#000000" fill-opacity="0.0" d="m92.65354 41.87664l0 148.75592" fill-rule="evenodd"/><path stroke="#000000" stroke-width="1.0" stroke-linejoin="round" stroke-linecap="butt" stroke-dasharray="1.0,3.0" d="m92.65354 41.87664l0 148.75592" fill-rule="evenodd"/><path fill="#000000" fill-opacity="0.0" d="m155.37007 194.37796l15.496063 0l0 30.708649l-15.496063 0z" fill-rule="evenodd"/><path fill="#000000" d="m165.33488 212.33795l-0.8125 0l0 -5.21875q-0.296875 0.28125 -0.78125 0.5625q-0.484375 0.28125 -0.859375 0.421875l0 -0.796875q0.6875 -0.328125 1.203125 -0.78125q0.515625 -0.453125 0.734375 -0.890625l0.515625 0l0 6.703125z" fill-rule="nonzero"/><path fill="#000000" fill-opacity="0.0" d="m32.244095 12.244095l21.19685 0l0 42.015747l-21.19685 0z" fill-rule="evenodd"/><path fill="#000000" d="m48.63472 42.867218l0 -4.734375q-0.375 0.546875 -1.0625 0.90625q-0.6875 0.34375 -1.46875 0.34375q-1.71875 0 -2.96875 -1.375q-1.234375 -1.375 -1.234375 -3.765625q0 -1.46875 0.5 -2.625q0.515625 -1.15625 1.46875 -1.75q0.96875 -0.59375 2.109375 -0.59375q1.796875 0 2.828125 1.515625l0 -1.296875l1.46875 0l0 13.375l-1.640625 0zm-5.046875 -8.5625q0 1.859375 0.78125 2.796875q0.78125 0.9375 1.875 0.9375q1.046875 0 1.796875 -0.890625q0.765625 -0.890625 0.765625 -2.703125q0 -1.9375 -0.796875 -2.90625q-0.796875 -0.96875 -1.875 -0.96875q-1.0625 0 -1.8125 0.90625q-0.734375 0.90625 -0.734375 2.828125z" fill-rule="nonzero"/><path fill="#000000" fill-opacity="0.0" d="m43.131233 29.839895l15.496063 0l0 30.708662l-15.496063 0z" fill-rule="evenodd"/><path fill="#000000" d="m54.33042 47.018642l0 0.78125l-4.421875 0q-0.015625 -0.296875 0.09375 -0.5625q0.171875 -0.453125 0.53125 -0.890625q0.375 -0.4375 1.078125 -1.015625q1.09375 -0.890625 1.46875 -1.40625q0.390625 -0.53125 0.390625 -1.0q0 -0.484375 -0.359375 -0.8125q-0.34375 -0.34375 -0.890625 -0.34375q-0.59375 0 -0.953125 0.359375q-0.359375 0.359375 -0.359375 0.984375l-0.84375 -0.078125q0.09375 -0.953125 0.65625 -1.4375q0.5625 -0.5 1.515625 -0.5q0.953125 0 1.515625 0.53125q0.5625 0.53125 0.5625 1.328125q0 0.390625 -0.171875 0.78125q-0.15625 0.390625 -0.546875 0.828125q-0.375 0.421875 -1.25 1.15625q-0.734375 0.625 -0.953125 0.84375q-0.203125 0.21875 -0.34375 0.453125l3.28125 0z" fill-rule="nonzero"/><path fill="#000000" fill-opacity="0.0" d="m78.11225 177.58005l21.196846 0l0 42.015747l-21.196846 0z" fill-rule="evenodd"/><path fill="#000000" d="m94.50288 208.20317l0 -4.734375q-0.375 0.546875 -1.0625 0.90625q-0.6875 0.34375 -1.46875 0.34375q-1.71875 0 -2.96875 -1.375q-1.234375 -1.375 -1.234375 -3.765625q0 -1.46875 0.5 -2.625q0.515625 -1.15625 1.46875 -1.75q0.96875 -0.59375 2.109375 -0.59375q1.796875 0 2.828125 1.515625l0 -1.296875l1.46875 0l0 13.375l-1.640625 0zm-5.046875 -8.5625q0 1.859375 0.78125 2.796875q0.78125 0.9375 1.875 0.9375q1.046875 0 1.796875 -0.890625q0.765625 -0.890625 0.765625 -2.703125q0 -1.9375 -0.796875 -2.90625q-0.796875 -0.96875 -1.875 -0.96875q-1.0625 0 -1.8125 0.90625q-0.734375 0.90625 -0.734375 2.828125z" fill-rule="nonzero"/><path fill="#000000" fill-opacity="0.0" d="m88.99939 195.17586l15.496063 0l0 30.708664l-15.496063 0z" fill-rule="evenodd"/><path fill="#000000" d="m98.9642 213.13585l-0.8125 0l0 -5.21875q-0.296875 0.28125 -0.78125 0.5625q-0.484375 0.28125 -0.859375 0.421875l0 -0.796875q0.6875 -0.328125 1.203125 -0.78125q0.515625 -0.453125 0.734375 -0.890625l0.515625 0l0 6.703125z" fill-rule="nonzero"/><path fill="#000000" fill-opacity="0.0" d="m104.3915 50.485584l0 53.165356l-35.55906 0l0 -53.165356z" fill-rule="evenodd"/><path fill="#000000" d="m79.93525 60.360584l9.5625 0l0 1.078125l-0.890625 0q0.53125 0.375 0.78125 0.84375q0.265625 0.484375 0.265625 1.15625q0 0.8749962 -0.453125 1.5468712q-0.453125 0.6875 -1.28125 1.03125q-0.828125 0.34375 -1.828125 0.34375q-1.046875 0 -1.90625 -0.375q-0.84375 -0.375 -1.296875 -1.109375q-0.453125 -0.71875 -0.453125 -1.5312462q0 -0.578125 0.25 -1.046875q0.25 -0.46875 0.625 -0.765625l-3.375 0l0 -1.171875zm6.078125 1.0625q-1.34375 0 -1.984375 0.53125q-0.625 0.546875 -0.625 1.3125q0 0.7812462 0.65625 1.3437462q0.65625 0.5625 2.046875 0.5625q1.3125 0 1.96875 -0.546875q0.671875 -0.546875 0.671875 -1.2968712q0 -0.75 -0.703125 -1.328125q-0.703125 -0.578125 -2.03125 -0.578125zm-0.5625 13.302822l1.1875 0l0 3.59375l-1.1875 0l0 -3.59375zm-5.515625 13.000732l3.390625 0q-0.390625 -0.265625 -0.640625 -0.765625q-0.25 -0.484375 -0.25 -1.046875q0 -1.21875 0.984375 -2.109375q0.984375 -0.890625 2.6875 -0.890625q1.046875 0 1.875 0.359375q0.828125 0.359375 1.25 1.046875q0.421875 0.6875 0.421875 1.515625q0 1.28125 -1.078125 2.015625l0.921875 0l0 1.046875l-9.5625 0l0 -1.171875zm6.125 -3.609375q-1.328125 0 -2.0 0.5625q-0.65625 0.5625 -0.65625 1.34375q0 0.75 0.625 1.28125q0.640625 0.546875 1.9375 0.546875q1.375 0 2.0625 -0.578125q0.703125 -0.5625 0.703125 -1.328125q0 -0.765625 -0.65625 -1.296875q-0.640625 -0.53125 -2.015625 -0.53125z" fill-rule="nonzero"/><path fill="#000000" fill-opacity="0.0" d="m90.25656 55.856834l0 15.496063l-27.46457 0l0 -15.496063z" fill-rule="evenodd"/><path fill="#000000" d="m75.41906 65.69665l-0.5625 0l0 -3.1406288q0.21875 -0.015625 0.40625 0.0625q0.328125 0.125 0.640625 0.390625q0.3125 0.265625 0.71875 0.765625q0.640625 0.7812538 1.0 1.0468788q0.375 0.28125 0.703125 0.28125q0.359375 0 0.59375 -0.25q0.234375 -0.25 0.234375 -0.65625q0 -0.4218788 -0.25 -0.6718788q-0.25 -0.25 -0.703125 -0.265625l0.0625 -0.59375q0.671875 0.0625 1.015625 0.46875q0.359375 0.40625 0.359375 1.0781288q0 0.6875 -0.375 1.078125q-0.375 0.40625 -0.9375 0.40625q-0.296875 0 -0.578125 -0.125q-0.265625 -0.109375 -0.578125 -0.390625q-0.296875 -0.265625 -0.828125 -0.890625q-0.453125 -0.5312538 -0.609375 -0.6875038q-0.15625 -0.140625 -0.3125 -0.234375l0 2.3281288z" fill-rule="nonzero"/><path fill="#000000" fill-opacity="0.0" d="m90.557785 81.06197l0 15.496063l-27.464565 0l0 -15.496063z" fill-rule="evenodd"/><path fill="#000000" d="m75.72028 90.90179l-0.5625 0l0 -3.140625q0.21875 -0.015625 0.40625 0.0625q0.328125 0.125 0.640625 0.390625q0.3125 0.265625 0.71875 0.765625q0.640625 0.78125 1.0 1.046875q0.375 0.28125 0.703125 0.28125q0.359375 0 0.59375 -0.25q0.234375 -0.25 0.234375 -0.65625q0 -0.421875 -0.25 -0.671875q-0.25 -0.25 -0.703125 -0.265625l0.0625 -0.59375q0.671875 0.0625 1.015625 0.46875q0.359375 0.40625 0.359375 1.078125q0 0.6875 -0.375 1.078125q-0.375 0.40625 -0.9375 0.40625q-0.296875 0 -0.578125 -0.125q-0.265625 -0.109375 -0.578125 -0.390625q-0.296875 -0.265625 -0.828125 -0.890625q-0.453125 -0.53125 -0.609375 -0.6875q-0.15625 -0.140625 -0.3125 -0.234375l0 2.328125z" fill-rule="nonzero"/><path fill="#000000" fill-opacity="0.0" d="m136.69461 30.234512l39.338577 59.27559l-35.02362 23.2126l-39.338577 -59.27559z" fill-rule="evenodd"/><path fill="#000000" d="m123.37941 58.85436l1.0158844 -0.6732979q-1.6993408 0.039051056 -2.6929474 -1.4581146q-0.6393585 -0.96339417 -0.64105225 -2.1244774q-0.0016937256 -1.1610832 0.6553116 -2.23386q0.6570053 -1.0727806 1.8942947 -1.8928223q1.2112503 -0.80277634 2.455902 -1.0465927q1.2576828 -0.25245285 2.3056946 0.19641876q1.0566406 0.46188736 1.7219238 1.4643364q0.48384094 0.7290573 0.54278564 1.4960365q0.080596924 0.7713661 -0.18103027 1.4508934l3.998413 -2.650032l0.9072113 1.3669777l-11.135666 7.3803787l-0.84672546 -1.2758446zm1.1646194 -6.976536q-1.549881 1.0272102 -1.8862991 2.1874428q-0.33642578 1.1602325 0.25109863 2.0455132q0.5961609 0.8983002 1.7402344 1.039814q1.1570969 0.13287735 2.6548767 -0.85980606q1.654068 -1.0962639 1.9991302 -2.2434769q0.35809326 -1.1558456 -0.2639923 -2.0932045q-0.5961609 -0.8983002 -1.7446213 -1.0181618q-1.1484604 -0.11985779 -2.7504272 0.9418793zm-0.43295288 15.171501q0.6679535 -2.073532 2.0641022 -4.1235733q1.3961487 -2.0500374 3.4539719 -3.4138985q1.7973328 -1.1912193 3.84021 -1.7016373q2.385498 -0.5875397 5.2287903 -0.42876053l0.647995 0.9764137q-2.180725 0.13315582 -3.0567017 0.28258514q-1.3443298 0.23490524 -2.6719055 0.72112656q-1.6356354 0.6154175 -3.0682983 1.5649414q-3.646759 2.4169655 -5.790161 7.0992126l-0.6480026 -0.9764099zm1.8897095 2.4518204l11.148689 -7.3890114l0.8208008 1.2367897l-1.0419312 0.6905594q0.90589905 0.03694153 1.5683289 0.38519287q0.6840973 0.35264587 1.2111511 1.1467896q0.68255615 1.0284958 0.66696167 2.163536q0.006088257 1.1394272 -0.7028961 2.1904144q-0.6959381 1.0423584 -1.8550873 1.8106079q-1.2373047 0.82003784 -2.5209045 1.033432q-1.2835846 0.21339417 -2.379181 -0.2789154q-1.0825653 -0.50094604 -1.7046509 -1.4383011q-0.4492798 -0.67697906 -0.52563477 -1.413681q-0.07635498 -0.73669434 0.14183044 -1.3686752l-3.9202728 2.5982437l-0.9072037 -1.3669815zm7.8929214 -3.4504013q-1.5498657 1.027214 -1.8905487 2.1527786q-0.3190155 1.1299438 0.2685089 2.0152283q0.60479736 0.9113159 1.8052216 1.0529709q1.2134552 0.13302612 2.8284454 -0.9373474q1.53685 -1.0185776 1.8819122 -2.1657944q0.353714 -1.1341934 -0.23381042 -2.0194702q-0.57888794 -0.8722687 -1.8486938 -1.0054321q-1.2481384 -0.12877655 -2.8110352 0.90706635zm1.1644592 10.4012375l1.562912 -1.0358429l1.0368042 1.5622559l-1.562912 1.0358429q-0.8595886 0.5697174 -1.5879211 0.6025467q-0.7327118 0.054481506 -1.4598846 -0.41957855l0.3355255 -0.7659912q0.46746826 0.30877686 0.98339844 0.26674652q0.5029297 -0.03339386 1.2104797 -0.46485138l-0.5184021 -0.7811279zm2.950348 11.142464l3.9463196 -2.6155014q-0.663208 -0.0103302 -1.342926 -0.38462067q-0.6667023 -0.38292694 -1.0986938 -1.0338669q-0.95040894 -1.4320755 -0.4954834 -3.2332q0.463562 -1.7881088 2.4562683 -3.1088104q1.2242584 -0.811409 2.4645386 -1.033577q1.2489014 -0.20914459 2.2708588 0.25698853q1.0306091 0.47914886 1.6613312 1.4295273q0.99360657 1.4971695 0.3005066 3.193718l1.0809937 -0.7164612l0.8121643 1.2237701l-11.148682 7.389015l-0.90719604 -1.3669815zm4.346512 -8.935432q-1.549881 1.0272064 -1.8993378 2.1960754q-0.34944153 1.1688614 0.25535583 2.0801773q0.57888794 0.8722687 1.7359924 1.0051422q1.1657257 0.14590454 2.676529 -0.85541534q1.6150055 -1.0703659 1.9818573 -2.269516q0.36686707 -1.1991501 -0.22930908 -2.0974503q-0.58750916 -0.8852768 -1.7576447 -1.0095291q-1.1614838 -0.11122894 -2.763443 0.95051575zm-1.5994873 13.470268l-0.6566467 -0.9894333q5.1587677 -0.13866425 8.805542 -2.5556335q1.432663 -0.9495239 2.6102448 -2.198616q0.97332764 -1.0199966 1.7042084 -2.1792374q0.4915619 -0.7569275 1.4670715 -2.734375l0.6566467 0.9894333q-0.9597626 2.679329 -2.429428 4.646866q-1.2738953 1.6690979 -3.0712433 2.8603134q-2.0578156 1.3638611 -4.4907684 1.8516388q-2.432953 0.4877777 -4.595627 0.30904388z" fill-rule="nonzero"/><path fill="#000000" fill-opacity="0.0" d="m98.20874 108.55242l59.527557 0l0 35.55906l-59.527557 0z" fill-rule="evenodd"/><path fill="#000000" d="m108.08374 133.00867l0 -9.562492l1.078125 0l0 0.890625q0.375 -0.53125 0.84375 -0.78125q0.484375 -0.265625 1.15625 -0.265625q0.875 0 1.546875 0.453125q0.6875 0.453125 1.03125 1.28125q0.34375 0.828125 0.34375 1.828125q0 1.046875 -0.375 1.9062424q-0.375 0.84375 -1.109375 1.296875q-0.71875 0.453125 -1.53125 0.453125q-0.578125 0 -1.046875 -0.25q-0.46875 -0.25 -0.765625 -0.625l0 3.375l-1.171875 0zm1.0625 -6.0781174q0 1.3437424 0.53125 1.9843674q0.546875 0.625 1.3125 0.625q0.78125 0 1.34375 -0.65625q0.5625 -0.65625 0.5625 -2.0468674q0 -1.3125 -0.546875 -1.96875q-0.546875 -0.671875 -1.296875 -0.671875q-0.75 0 -1.328125 0.703125q-0.578125 0.703125 -0.578125 2.03125zm13.302826 0.5625l0 -1.1875l3.59375 0l0 1.1875l-3.59375 0zm13.000732 5.5156174l0 -3.390625q-0.265625 0.390625 -0.765625 0.640625q-0.484375 0.25 -1.046875 0.25q-1.21875 0 -2.109375 -0.984375q-0.890625 -0.984375 -0.890625 -2.6874924q0 -1.046875 0.359375 -1.875q0.359375 -0.828125 1.046875 -1.25q0.6875 -0.421875 1.515625 -0.421875q1.28125 0 2.015625 1.078125l0 -0.921875l1.046875 0l0 9.562492l-1.171875 0zm-3.609375 -6.1249924q0 1.3281174 0.5625 1.9999924q0.5625 0.65625 1.34375 0.65625q0.75 0 1.28125 -0.625q0.546875 -0.640625 0.546875 -1.9374924q0 -1.375 -0.578125 -2.0625q-0.5625 -0.703125 -1.328125 -0.703125q-0.765625 0 -1.296875 0.65625q-0.53125 0.640625 -0.53125 2.015625z" fill-rule="nonzero"/><path fill="#000000" fill-opacity="0.0" d="m103.57951 122.68766l15.496063 0l0 27.464561l-15.496063 0z" fill-rule="evenodd"/><path fill="#000000" d="m112.55995 138.08766l-0.59375 0l0 -3.734375q-0.203125 0.203125 -0.546875 0.40625q-0.34375 0.203125 -0.625 0.3125l0 -0.578125q0.5 -0.21875 0.859375 -0.546875q0.375 -0.328125 0.53125 -0.640625l0.375 0l0 4.78125z" fill-rule="nonzero"/><path fill="#000000" fill-opacity="0.0" d="m128.02715 123.3163l15.496063 0l0 27.46457l-15.496063 0z" fill-rule="evenodd"/><path fill="#000000" d="m137.00758 138.7163l-0.59375 0l0 -3.734375q-0.203125 0.203125 -0.546875 0.40625q-0.34375 0.203125 -0.625 0.3125l0 -0.578125q0.5 -0.21875 0.859375 -0.546875q0.375 -0.328125 0.53125 -0.640625l0.375 0l0 4.78125z" fill-rule="nonzero"/></g></svg>